<?xml version="1.0" encoding="utf-8"?>
<!-- Generator: Adobe Illustrator 27.3.1, SVG Export Plug-In . SVG Version: 6.00 Build 0)  -->
<svg version="1.1" id="Layer_1" xmlns="http://www.w3.org/2000/svg" xmlns:xlink="http://www.w3.org/1999/xlink" x="0px" y="0px"
	 viewBox="0 0 97.4 91.8" style="enable-background:new 0 0 97.4 91.8;" xml:space="preserve">
<style type="text/css">
	.st0{fill:#F8A619;}
	.st1{opacity:0.1;fill:#403F41;enable-background:new    ;}
</style>
<g transform="matrix(3.36449 0 0 3.36449 46.1682 69.1215)">
	<g transform="translate(1.98148 4.9537)">
		<path class="st0" d="M10.9-10.6c-0.1-0.9-0.5-2-2.9-1.3c-1.2,0.4-2.4,0.4-2.9-0.1C5-12.1,5-12.2,4.9-12.2c-0.2-0.4-0.1-1,0.4-1.8
			c0.2-0.5,0.7-0.7,1.2-0.7c0.4,0,0.8,0.1,1.4,0.1c1.7,0,2.3-1.1,2.2-2.1c0-0.3-0.4-0.2-1.1-0.4c-0.7-0.2-1.3-0.1-1.5-1.1
			c-0.2-0.6-0.7-1-1.3-1.1S4.4-20,3.4-19.2l-0.8-0.4c-0.5-0.1-0.5,0.2-1,0.4s-1.4-0.3-1.1,0.3c0.4,0.7,1.2,1.1,2,0.8
			c-0.6,2.9-3.3,3.6-5.7,3.5c-1.5-0.1-2.9-0.7-3.9-1.8s-1.5-2.6-1.5-4.1c0-0.9-0.3-1.2-0.5-0.7c-0.1,0.2-0.2,0.4-0.2,0.6
			c0,0.1-0.1,0.2-0.1,0.3c-0.3,2.2,0.6,4.3,2.2,5.6c-0.5,0.4-0.8,1-1,1.7c-0.1,0.5-0.1,0.9,0,1.4c0,0.1,0,0.1,0.1,0.2
			c0.2,1-1.6,1.6-2.4,1.8h-0.9c-0.5,0-0.8,0-1.1,1.2c-0.4,1.7-1.7,1.3-1.9,1.8c-0.5,0.7,0.2,1.3,1.1,1.3c0.6,0,1.1-0.2,1.6-0.5
			c1.5-1.4,0.8-2,2.3-1.9l0.7,0.1C-7-7.4-5.8-7-4.2-8.8C-4.1-8.9-4-9.1-3.9-9.2c0.1-0.1,0.2-0.1,0.3-0.2h0.3c0.6,0.2,2.1,1,3.7,0.7
			C1-8.9,1.6-9.3,2.1-9.8c0,0,0.3-0.2,0.4,0s0.4,0.7,0.7,0.9C3.8-8.3,3.8-8.5,5-9l0.4-0.2c3.2-1.2,3.1-1.6,3.8-0.3
			c0.1,0.2,0.5,0.3,0.9,0.1C10.5-9.5,10.9-10,10.9-10.6"/>
		<g>
			<path class="st1" d="M0.8-10C0-8.3-3-9.4-3-9.7c-0.1-0.4,0.2-0.8,0-0.6c-0.2,0.2-0.8,1-1,1.2c0.1-0.1,0.2-0.1,0.3-0.2h0.3
				c0.6,0.2,2.1,1,3.7,0.7C0.9-8.8,1.5-9.2,2-9.7c0,0,0.3-0.2,0.4,0c0,0-0.7-1.2-1-1.6C1.2-11.6,1.2-10.8,0.8-10"/>
			<path class="st1" d="M4.9-15.3c-0.3-0.5-1.6-0.2-1,0.3c1.6,1.2,0,1.2,1.1,2.8c-0.2-0.4-0.1-1,0.4-1.8c0.2-0.5,0.7-0.7,1.2-0.7
				C6.5-14.8,5.1-14.8,4.9-15.3"/>
		</g>
	</g>
</g>
</svg>
