<?xml version="1.0" encoding="utf-8"?>
<!-- Generator: Adobe Illustrator 27.3.1, SVG Export Plug-In . SVG Version: 6.00 Build 0)  -->
<svg version="1.1" id="Layer_1" xmlns="http://www.w3.org/2000/svg" xmlns:xlink="http://www.w3.org/1999/xlink" x="0px" y="0px"
	 viewBox="0 0 122 115" style="enable-background:new 0 0 122 115;" xml:space="preserve">
<style type="text/css">
	.st0{fill:#2F0C38;}
	.st1{fill:#F8A619;}
	.st2{opacity:0.1;fill:#403F41;enable-background:new    ;}
</style>
<g transform="matrix(3.36449 0 0 3.36449 46.1682 69.1215)">
	<path class="st0" d="M-5.2-19.2h19.3c3.7,0,6.7,3,6.7,6.7V5.8c0,3.7-3,6.7-6.7,6.7H-5.2c-3.7,0-6.7-3-6.7-6.7v-18.3
		C-11.9-16.2-8.9-19.2-5.2-19.2z"/>
	<g transform="translate(1.98148 4.9537)">
		<path class="st1" d="M14.1-7.6c-0.1-0.9-0.5-2-2.9-1.3C10-8.5,8.8-8.5,8.3-9C8.2-9.1,8.2-9.2,8.1-9.2C7.9-9.6,8-10.2,8.5-11
			c0.2-0.5,0.7-0.7,1.2-0.7c0.4,0,0.8,0.1,1.4,0.1c1.7,0,2.3-1.1,2.2-2.1c0-0.3-0.4-0.2-1.1-0.4s-1.3-0.1-1.5-1.1
			c-0.2-0.6-0.7-1-1.3-1.1S7.6-17,6.6-16.2l-0.8-0.4c-0.5-0.1-0.5,0.2-1,0.4s-1.4-0.3-1.1,0.3c0.4,0.7,1.2,1.1,2,0.8
			c-0.6,2.9-3.3,3.6-5.7,3.5c-1.5-0.1-2.9-0.7-3.9-1.8s-1.5-2.6-1.5-4.1c0-0.9-0.3-1.2-0.5-0.7C-6-18-6.1-17.8-6.1-17.6
			c0,0.1-0.1,0.2-0.1,0.3C-6.5-15.1-5.6-13-4-11.7c-0.5,0.4-0.8,1-1,1.7c-0.1,0.5-0.1,0.9,0,1.4c0,0.1,0,0.1,0.1,0.2
			c0.2,1-1.6,1.6-2.4,1.8h-0.9c-0.5,0-0.8,0-1.1,1.2c-0.4,1.7-1.7,1.3-1.9,1.8c-0.5,0.7,0.2,1.3,1.1,1.3c0.6,0,1.1-0.2,1.6-0.5
			c1.5-1.4,0.8-2,2.3-1.9l0.7,0.1C-3.8-4.4-2.6-4-1-5.8c0.1-0.1,0.2-0.3,0.3-0.4s0.2-0.1,0.3-0.2h0.3c0.6,0.2,2.1,1,3.7,0.7
			c0.6-0.2,1.2-0.6,1.7-1.1c0,0,0.3-0.2,0.4,0s0.4,0.7,0.7,0.9C7-5.3,7-5.5,8.2-6l0.4-0.2c3.2-1.2,3.1-1.6,3.8-0.3
			c0.1,0.2,0.5,0.3,0.9,0.1C13.7-6.5,14.1-7,14.1-7.6"/>
		<g>
			<path class="st2" d="M4-7C3.2-5.3,0.2-6.4,0.2-6.7c-0.1-0.4,0.2-0.8,0-0.6s-0.8,1-1,1.2c0.1-0.1,0.2-0.1,0.3-0.2h0.3
				c0.6,0.2,2.1,1,3.7,0.7c0.6-0.2,1.2-0.6,1.7-1.1c0,0,0.3-0.2,0.4,0c0,0-0.7-1.2-1-1.6C4.4-8.6,4.4-7.8,4-7"/>
			<path class="st2" d="M8.1-12.3c-0.3-0.5-1.6-0.2-1,0.3c1.6,1.2,0,1.2,1.1,2.8C8-9.6,8.1-10.2,8.6-11c0.2-0.5,0.7-0.7,1.2-0.7
				C9.7-11.8,8.3-11.8,8.1-12.3"/>
		</g>
	</g>
</g>
</svg>
